<?xml version="1.0" encoding="UTF-8"?>
<svg id="Layer_2" data-name="Layer 2" xmlns="http://www.w3.org/2000/svg" xmlns:xlink="http://www.w3.org/1999/xlink" viewBox="0 0 371.5 527.77">
  <defs>
    <style>
      .cls-1 {
        fill: #0a1e3f;
      }

      .cls-2 {
        fill: url(#linear-gradient);
      }
    </style>
    <linearGradient id="linear-gradient" x1="0" y1="185.75" x2="371.5" y2="185.75" gradientUnits="userSpaceOnUse">
      <stop offset="0" stop-color="#3ba7ff"/>
      <stop offset="1" stop-color="#0a1e3f"/>
    </linearGradient>
  </defs>
  <g id="Layer_1-2" data-name="Layer 1">
    <g>
      <g>
        <path class="cls-1" d="M60.35,478.01c0,.25-.1.47-.31.67-.21.2-.48.29-.81.29h-17.39c-.81,0-1.52-.52-2.13-1.55l-9.24-15.21-8.23,15.04c-.58,1.14-1.27,1.71-2.05,1.71H4.18c-.31,0-.56-.1-.77-.31s-.31-.45-.31-.73c0-.11.06-.33.17-.67l17.47-31.51-17.3-28.75c-.11-.22-.17-.42-.17-.59,0-.31.1-.56.29-.75s.46-.29.79-.29h17.47c.64,0,1.32.54,2.05,1.63l8.82,14.54,7.57-14.54c.61-1.09,1.29-1.63,2.05-1.63h16.09c.33,0,.6.1.79.29.19.2.29.45.29.75,0,.17-.06.36-.17.59l-17.18,30.3,17.97,29.96c.17.25.25.5.25.75Z"/>
        <path class="cls-1" d="M108.54,477c0,.98-.57,1.55-1.71,1.71-5.21.67-10.84,1-16.88,1-1.7,0-3.26-.06-4.68-.19-1.42-.13-2.9-.36-4.43-.71-1.53-.35-2.9-.81-4.12-1.4-1.21-.59-2.38-1.37-3.49-2.34-1.11-.97-2.04-2.12-2.78-3.45-.74-1.32-1.32-2.92-1.75-4.79-.43-1.87-.65-3.96-.65-6.27v-26.87c0-3.18.42-5.95,1.28-8.32.85-2.37,1.94-4.23,3.26-5.58,1.32-1.35,2.98-2.44,4.97-3.26,1.99-.82,3.95-1.36,5.87-1.63,1.92-.26,4.1-.4,6.52-.4,6.05,0,11.67.33,16.88,1,1.14.17,1.71.74,1.71,1.71v10.45c0,.47-.17.88-.5,1.21-.33.33-.74.5-1.21.5h-17.3c-1.56,0-2.63.3-3.22.9-.58.6-.88,1.73-.88,3.41v6.23h21.02c.47,0,.88.17,1.21.5s.5.74.5,1.21v10.11c0,.47-.17.88-.5,1.21s-.74.5-1.21.5h-21.02v7.11c0,1.64.29,2.77.88,3.36.58.6,1.66.9,3.22.9h17.3c.47,0,.88.17,1.21.5.33.33.5.74.5,1.21v10.45Z"/>
        <path class="cls-1" d="M155.76,477c0,.98-.57,1.55-1.71,1.71-3.54.67-8.02,1-13.46,1-1.7,0-3.26-.06-4.68-.19-1.42-.13-2.9-.36-4.45-.71-1.55-.35-2.93-.81-4.14-1.4-1.21-.59-2.38-1.37-3.49-2.34-1.11-.97-2.04-2.12-2.78-3.45-.74-1.32-1.33-2.92-1.78-4.79-.45-1.87-.67-3.96-.67-6.27v-43.51c0-.47.18-.88.54-1.21s.78-.5,1.25-.5h13.96c.47,0,.88.17,1.21.5s.5.74.5,1.21v43.51c0,1.64.29,2.77.88,3.36.58.6,1.66.9,3.22.9h13.88c.47,0,.88.17,1.21.5.33.33.5.74.5,1.21v10.45Z"/>
        <path class="cls-1" d="M216.36,416.65s-.01.09-.04.19c-.03.1-.04.17-.04.23l-11.49,52.41c-.45,2.06-1.16,3.78-2.15,5.16-.99,1.38-2.23,2.43-3.72,3.16s-3.06,1.23-4.72,1.5c-1.66.28-3.6.42-5.83.42s-4.17-.14-5.83-.42c-1.66-.28-3.23-.78-4.72-1.5s-2.73-1.78-3.72-3.16c-.99-1.38-1.71-3.1-2.15-5.16l-11.45-52.41c0-.06-.02-.12-.06-.21-.04-.08-.06-.15-.06-.21,0-.36.14-.67.42-.92.28-.25.63-.38,1.04-.38h14.84c.45,0,.84.16,1.17.48s.54.7.63,1.15l8.99,47.35c.08.31.15.52.19.65.04.12.12.24.23.36s.28.17.5.17c.53,0,.88-.39,1.04-1.17l8.99-47.35c.22-1.09.79-1.63,1.71-1.63h14.88c.42,0,.75.12,1,.36.25.24.38.55.38.94Z"/>
        <path class="cls-1" d="M242.02,477.25c0,.47-.17.88-.5,1.21-.33.33-.74.5-1.21.5h-14.04c-.47,0-.88-.17-1.21-.5s-.5-.74-.5-1.21v-60.26c0-.47.17-.86.5-1.17.33-.31.74-.46,1.21-.46h14.04c.47,0,.88.15,1.21.46.33.31.5.7.5,1.17v60.26Z"/>
        <path class="cls-1" d="M303.29,477.25c0,.47-.18.88-.54,1.21-.36.33-.78.5-1.25.5h-13.96c-.47,0-.86-.16-1.15-.48-.29-.32-.44-.73-.44-1.23v-19.02h-15.67v19.02c0,.47-.15.88-.46,1.21-.31.33-.7.5-1.17.5h-14.04c-.47,0-.88-.17-1.21-.5-.33-.33-.5-.74-.5-1.21v-43.21c0-3.18.42-5.95,1.25-8.32s1.92-4.25,3.24-5.64c1.32-1.39,2.97-2.51,4.93-3.34,1.96-.84,3.93-1.4,5.89-1.69,1.96-.29,4.16-.44,6.58-.44h6.6c1.7,0,3.27.07,4.72.21,1.45.14,2.94.4,4.47.77s2.9.86,4.12,1.46c1.21.6,2.37,1.4,3.47,2.4,1.1,1,2.01,2.17,2.74,3.51.72,1.34,1.3,2.94,1.73,4.81.43,1.87.65,3.96.65,6.27v43.21ZM285.95,444.11v-10.07c0-1.73-.32-2.9-.96-3.53s-1.84-.94-3.59-.94h-6.6c-1.73,0-2.91.32-3.55.96s-.96,1.81-.96,3.51v10.07h15.67Z"/>
        <path class="cls-1" d="M365.94,477.25c0,.47-.17.88-.5,1.21s-.74.5-1.21.5h-14.13c-.47,0-.86-.17-1.17-.5-.31-.33-.46-.74-.46-1.21v-37.82c0-3.87-.69-6.51-2.07-7.92-1.38-1.41-3.6-2.11-6.67-2.11-3.34,0-6.05.14-8.11.42v47.43c0,.47-.17.88-.5,1.21-.33.33-.74.5-1.21.5h-14.04c-.47,0-.88-.17-1.21-.5s-.5-.74-.5-1.21v-55.04c0-2.26.36-3.78,1.09-4.58.72-.79,2.1-1.34,4.14-1.65,2.15-.33,5.27-.66,9.36-.98s7.08-.48,8.94-.48c3.71,0,6.91.19,9.61.56,2.7.38,5.29,1.1,7.75,2.17s4.46,2.52,5.98,4.35c1.52,1.83,2.72,4.22,3.59,7.19.88,2.97,1.32,6.51,1.32,10.64v37.82Z"/>
      </g>
      <g>
        <path class="cls-1" d="M17.83,500.58c0,.15-.05.27-.16.35-.11.09-.25.13-.42.13h-5.92v19.56c0,.16-.05.3-.15.42-.1.12-.23.18-.38.18h-1.67c-.15,0-.28-.06-.39-.18s-.16-.26-.16-.43v-19.56H2.68c-.4,0-.61-.16-.61-.49v-1.33c0-.15.06-.28.18-.38.12-.11.26-.16.43-.16h14.58c.17,0,.31.05.42.15.11.1.16.23.16.4v1.33Z"/>
        <path class="cls-1" d="M33.71,520.62c0,.17-.06.31-.17.43s-.25.18-.42.18h-1.47c-.17,0-.31-.06-.43-.18s-.18-.26-.18-.43v-10.18c0-1.27-.32-2.23-.96-2.87-.64-.64-1.63-.95-2.98-.95-1.25,0-2.42.15-3.49.46v13.54c0,.17-.06.31-.17.43-.11.12-.25.18-.42.18h-1.46c-.17,0-.31-.06-.43-.18s-.18-.26-.18-.43v-21.61c0-.16.05-.29.15-.41s.23-.17.4-.17h1.55c.15,0,.28.05.39.16.11.11.17.25.17.42v5.76c1.25-.29,2.42-.43,3.49-.43,2.2,0,3.85.55,4.95,1.64,1.1,1.09,1.65,2.58,1.65,4.46v10.18Z"/>
        <path class="cls-1" d="M50.74,513.07c0,.21-.05.37-.16.49-.1.12-.24.18-.42.18h-10.16v.37c0,1.71.38,2.98,1.15,3.83.76.84,1.86,1.27,3.28,1.27,1.53,0,3.26-.14,5.18-.43h.15c.13,0,.24.04.34.11.1.07.15.18.15.32v1.02c0,.21-.04.37-.13.48s-.24.19-.48.23c-1.71.33-3.45.5-5.21.5-.74,0-1.44-.07-2.09-.21-.65-.14-1.29-.39-1.92-.75-.63-.36-1.17-.82-1.61-1.37s-.81-1.27-1.08-2.15c-.27-.88-.41-1.88-.41-3v-2.12c0-2.22.59-4.02,1.78-5.41,1.19-1.39,2.84-2.08,4.95-2.08s3.79.69,4.95,2.06c1.15,1.37,1.73,3.17,1.73,5.4v1.27ZM48.04,511.71v-.15c0-3.26-1.32-4.89-3.97-4.89-1.3,0-2.3.42-3,1.27s-1.05,2.05-1.05,3.61v.15h8.02Z"/>
        <path class="cls-1" d="M74.88,520.04c0,.21-.04.36-.12.46s-.25.18-.52.24c-1.88.46-3.74.7-5.58.7-2.2,0-3.85-.66-4.96-1.98s-1.66-3.16-1.66-5.51v-2.12c0-2.35.55-4.18,1.65-5.51,1.1-1.32,2.76-1.98,4.97-1.98,1.84,0,3.71.23,5.58.7.27.06.44.13.52.22s.12.25.12.47v14.32ZM72.2,518.89v-12.01c-1.09-.2-2.27-.3-3.54-.3-1.43,0-2.45.45-3.04,1.34-.6.89-.9,2.19-.9,3.9v2.12c0,.83.07,1.55.2,2.17.13.62.35,1.17.64,1.64s.7.84,1.22,1.08c.52.24,1.14.36,1.87.36,1.17,0,2.35-.1,3.54-.31Z"/>
        <path class="cls-1" d="M86.5,506.19c0,.19-.04.32-.11.38-.07.07-.25.1-.53.1-1.86,0-3.26.1-4.22.3v13.65c0,.16-.05.3-.15.42-.1.12-.23.18-.38.18h-1.58c-.15,0-.28-.06-.38-.18s-.16-.26-.16-.43v-14.73c0-.31.18-.54.55-.7.8-.34,1.69-.57,2.68-.69.99-.11,2.21-.17,3.66-.17.23,0,.39.03.49.08.1.05.15.18.15.38v1.39Z"/>
        <path class="cls-1" d="M100.01,520.45c0,.21-.04.36-.13.46-.08.1-.24.17-.48.21-1.23.22-2.5.33-3.79.33-2.04,0-3.63-.66-4.77-1.98-1.14-1.32-1.7-3.11-1.7-5.37v-2.37c0-2.26.57-4.05,1.7-5.38s2.72-1.99,4.77-1.99c1.24,0,2.51.11,3.79.34.24.04.4.11.48.2.08.09.13.25.13.47v1.1c0,.14-.05.25-.15.33s-.22.12-.37.12h-.12c-1.24-.14-2.5-.21-3.76-.21-2.53,0-3.79,1.68-3.79,5.03v2.37c0,3.36,1.26,5.03,3.79,5.03,1.17,0,2.43-.07,3.76-.22h.12c.14,0,.26.04.36.13s.16.19.16.33v1.1Z"/>
        <path class="cls-1" d="M116.15,520.62c0,.17-.06.31-.17.43s-.25.18-.42.18h-1.47c-.17,0-.31-.06-.43-.18s-.18-.26-.18-.43v-10.18c0-1.27-.32-2.23-.96-2.87-.64-.64-1.63-.95-2.98-.95-1.25,0-2.42.15-3.49.46v13.54c0,.17-.06.31-.17.43-.11.12-.25.18-.42.18h-1.46c-.17,0-.31-.06-.43-.18s-.18-.26-.18-.43v-21.61c0-.16.05-.29.15-.41s.23-.17.4-.17h1.55c.15,0,.28.05.39.16.11.11.17.25.17.42v5.76c1.25-.29,2.42-.43,3.49-.43,2.2,0,3.85.55,4.95,1.64,1.1,1.09,1.65,2.58,1.65,4.46v10.18Z"/>
        <path class="cls-1" d="M123.33,501.27c0,.17-.06.31-.18.43s-.26.18-.43.18h-1.54c-.17,0-.31-.06-.43-.18-.12-.12-.18-.26-.18-.43v-2.41c0-.17.06-.31.18-.43.12-.12.26-.18.43-.18h1.54c.17,0,.31.06.43.18s.18.26.18.43v2.41ZM123.27,520.62c0,.17-.06.31-.18.43-.12.12-.26.18-.43.18h-1.45c-.17,0-.31-.06-.43-.18-.12-.12-.18-.26-.18-.43v-15.46c0-.17.06-.31.18-.43s.26-.18.43-.18h1.45c.17,0,.31.06.43.18.12.12.18.26.18.43v15.46Z"/>
        <path class="cls-1" d="M135.75,520.74c0,.3-.2.47-.61.52-.77.12-1.74.18-2.92.18-1.52,0-2.65-.31-3.38-.93-.74-.62-1.1-1.71-1.1-3.27v-15.65c0-.15.06-.27.17-.38.11-.1.26-.17.44-.2l1.5-.24h.06c.15,0,.27.06.36.17s.14.25.14.41v3.21h4.74c.18,0,.32.05.42.14.1.09.16.22.16.39v1.04c0,.15-.05.28-.16.39-.11.11-.25.16-.41.16h-4.74v10.56c0,.85.16,1.4.47,1.67.32.26.91.39,1.78.39h2.46c.42,0,.64.14.64.43v1.02Z"/>
        <path class="cls-1" d="M151.49,513.07c0,.21-.05.37-.16.49-.1.12-.24.18-.42.18h-10.16v.37c0,1.71.38,2.98,1.15,3.83.76.84,1.86,1.27,3.28,1.27,1.53,0,3.26-.14,5.18-.43h.15c.13,0,.24.04.34.11.1.07.15.18.15.32v1.02c0,.21-.04.37-.13.48s-.24.19-.48.23c-1.71.33-3.45.5-5.21.5-.74,0-1.44-.07-2.09-.21-.65-.14-1.29-.39-1.92-.75-.63-.36-1.17-.82-1.61-1.37s-.81-1.27-1.08-2.15c-.27-.88-.41-1.88-.41-3v-2.12c0-2.22.59-4.02,1.78-5.41,1.19-1.39,2.84-2.08,4.95-2.08s3.79.69,4.95,2.06c1.15,1.37,1.73,3.17,1.73,5.4v1.27ZM148.78,511.71v-.15c0-3.26-1.32-4.89-3.97-4.89-1.3,0-2.3.42-3,1.27s-1.05,2.05-1.05,3.61v.15h8.02Z"/>
        <path class="cls-1" d="M165.37,520.45c0,.21-.04.36-.13.46-.08.1-.24.17-.48.21-1.23.22-2.5.33-3.79.33-2.04,0-3.63-.66-4.77-1.98-1.14-1.32-1.7-3.11-1.7-5.37v-2.37c0-2.26.57-4.05,1.7-5.38s2.72-1.99,4.77-1.99c1.24,0,2.51.11,3.79.34.24.04.4.11.48.2.08.09.13.25.13.47v1.1c0,.14-.05.25-.15.33s-.22.12-.37.12h-.12c-1.24-.14-2.5-.21-3.76-.21-2.53,0-3.79,1.68-3.79,5.03v2.37c0,3.36,1.26,5.03,3.79,5.03,1.17,0,2.43-.07,3.76-.22h.12c.14,0,.26.04.36.13s.16.19.16.33v1.1Z"/>
        <path class="cls-1" d="M176.76,520.74c0,.3-.2.47-.61.52-.77.12-1.74.18-2.92.18-1.52,0-2.65-.31-3.38-.93-.74-.62-1.1-1.71-1.1-3.27v-15.65c0-.15.06-.27.17-.38.11-.1.26-.17.44-.2l1.5-.24h.06c.15,0,.27.06.36.17s.14.25.14.41v3.21h4.74c.18,0,.32.05.42.14.1.09.16.22.16.39v1.04c0,.15-.05.28-.16.39-.11.11-.25.16-.41.16h-4.74v10.56c0,.85.16,1.4.47,1.67.32.26.91.39,1.78.39h2.46c.42,0,.64.14.64.43v1.02Z"/>
        <path class="cls-1" d="M190.13,517.04c0,1.49-.5,2.6-1.5,3.32-1,.72-2.39,1.08-4.17,1.08-1.92,0-3.51-.15-4.8-.44-.42-.1-.64-.3-.64-.61v-1.07c0-.13.05-.24.16-.33s.24-.13.38-.13h.12c1.86.23,3.44.34,4.77.34,1.03,0,1.78-.16,2.27-.49.49-.33.73-.88.73-1.67,0-.44-.16-.84-.49-1.2-.33-.36-.92-.79-1.79-1.32l-3.06-1.81c-1-.61-1.76-1.26-2.29-1.95-.53-.69-.8-1.49-.8-2.38,0-.76.14-1.41.41-1.95.27-.54.66-.96,1.18-1.26.51-.3,1.09-.51,1.72-.64.63-.13,1.36-.19,2.19-.19,1.56,0,3.14.13,4.74.4.38.06.56.26.56.61v.99c0,.34-.17.52-.5.52h-.09c-1.89-.16-3.46-.24-4.71-.24-.97,0-1.68.12-2.13.35s-.68.7-.68,1.41c0,.42.16.8.48,1.14.32.34.86.72,1.61,1.15l3,1.79c1.22.72,2.08,1.43,2.58,2.14.5.71.75,1.52.75,2.44Z"/>
        <path class="cls-1" d="M214.92,514.05c0,2.28-.58,4.08-1.75,5.4-1.17,1.32-2.84,1.98-5.02,1.98s-3.85-.66-5-1.98c-1.16-1.32-1.73-3.12-1.73-5.4v-2.31c0-2.28.58-4.08,1.73-5.41,1.15-1.33,2.82-1.99,5-1.99s3.85.66,5.02,1.99c1.16,1.33,1.75,3.13,1.75,5.41v2.31ZM212.26,514.05v-2.31c0-1.6-.34-2.84-1.01-3.73-.68-.89-1.71-1.33-3.09-1.33s-2.39.44-3.06,1.33c-.67.88-1,2.13-1,3.74v2.31c0,1.61.33,2.85.99,3.74.66.88,1.68,1.33,3.06,1.33s2.4-.44,3.08-1.33c.68-.88,1.02-2.13,1.02-3.74Z"/>
        <path class="cls-1" d="M226.5,499.94c0,.29-.21.43-.64.43h-2.69c-.85,0-1.4.12-1.64.36-.25.24-.37.81-.37,1.7v2.13h4.74c.18,0,.32.05.42.14.1.09.16.22.16.39v1.04c0,.15-.05.28-.16.39-.11.11-.25.16-.41.16h-4.74v13.95c0,.17-.06.31-.17.43-.11.12-.25.18-.42.18h-1.46c-.17,0-.31-.06-.43-.18s-.18-.26-.18-.43v-18.19c0-1.54.4-2.63,1.19-3.26.79-.63,1.96-.95,3.49-.95,1.05,0,1.95.06,2.72.18.4.05.61.22.61.52v1.02Z"/>
        <path class="cls-1" d="M245.6,520.74c0,.3-.2.47-.61.52-.77.12-1.74.18-2.92.18-1.52,0-2.65-.31-3.38-.93-.74-.62-1.1-1.71-1.1-3.27v-15.65c0-.15.06-.27.17-.38.11-.1.26-.17.44-.2l1.5-.24h.06c.15,0,.27.06.36.17s.14.25.14.41v3.21h4.74c.18,0,.32.05.42.14.1.09.16.22.16.39v1.04c0,.15-.05.28-.16.39-.11.11-.25.16-.41.16h-4.74v10.56c0,.85.16,1.4.47,1.67.32.26.91.39,1.78.39h2.46c.42,0,.64.14.64.43v1.02Z"/>
        <path class="cls-1" d="M261.36,514.05c0,2.28-.58,4.08-1.75,5.4-1.17,1.32-2.84,1.98-5.02,1.98s-3.85-.66-5-1.98c-1.16-1.32-1.73-3.12-1.73-5.4v-2.31c0-2.28.58-4.08,1.73-5.41,1.15-1.33,2.82-1.99,5-1.99s3.85.66,5.02,1.99c1.16,1.33,1.75,3.13,1.75,5.41v2.31ZM258.7,514.05v-2.31c0-1.6-.34-2.84-1.01-3.73-.68-.89-1.71-1.33-3.09-1.33s-2.39.44-3.06,1.33c-.67.88-1,2.13-1,3.74v2.31c0,1.61.33,2.85.99,3.74.66.88,1.68,1.33,3.06,1.33s2.4-.44,3.08-1.33c.68-.88,1.02-2.13,1.02-3.74Z"/>
        <path class="cls-1" d="M285,520.62c0,.18-.05.32-.15.44s-.23.17-.4.17h-1.57c-.17,0-.3-.06-.4-.17s-.15-.26-.15-.44v-10.97c0-.63-.06-1.15-.19-1.56-.13-.41-.32-.71-.58-.91-.26-.2-.54-.33-.84-.4-.3-.07-.67-.1-1.12-.1h-.7c-1.01,0-1.69.13-2.06.4-.37.27-.55.82-.55,1.66v11.89c0,.18-.05.32-.15.44s-.23.17-.4.17h-1.57c-.17,0-.3-.06-.4-.17-.1-.11-.15-.26-.15-.44v-11.89c0-.84-.18-1.39-.55-1.66-.37-.27-1.05-.4-2.06-.4h-.7c-.43,0-.8.04-1.09.1-.3.07-.58.2-.85.4s-.47.5-.6.91c-.13.41-.19.93-.19,1.56v10.97c0,.18-.05.32-.14.44s-.22.17-.39.17h-1.58c-.17,0-.3-.06-.4-.17s-.15-.26-.15-.44v-10.97c0-1.62.46-2.91,1.38-3.87s2.26-1.44,4.03-1.44h.7c.95,0,1.73.08,2.34.24s1.14.45,1.6.85c.84-.73,2.15-1.1,3.94-1.1h.7c1.77,0,3.11.48,4.03,1.44.92.96,1.38,2.25,1.38,3.87v10.97Z"/>
        <path class="cls-1" d="M302.08,514.05c0,2.28-.58,4.08-1.75,5.4-1.17,1.32-2.84,1.98-5.02,1.98s-3.85-.66-5-1.98c-1.16-1.32-1.73-3.12-1.73-5.4v-2.31c0-2.28.58-4.08,1.73-5.41,1.15-1.33,2.82-1.99,5-1.99s3.85.66,5.02,1.99c1.16,1.33,1.75,3.13,1.75,5.41v2.31ZM299.41,514.05v-2.31c0-1.6-.34-2.84-1.01-3.73-.68-.89-1.71-1.33-3.09-1.33s-2.39.44-3.06,1.33c-.67.88-1,2.13-1,3.74v2.31c0,1.61.33,2.85.99,3.74.66.88,1.68,1.33,3.06,1.33s2.4-.44,3.08-1.33c.68-.88,1.02-2.13,1.02-3.74Z"/>
        <path class="cls-1" d="M313.16,506.19c0,.19-.04.32-.11.38-.07.07-.25.1-.53.1-1.86,0-3.26.1-4.22.3v13.65c0,.16-.05.3-.15.42-.1.12-.23.18-.38.18h-1.58c-.15,0-.28-.06-.38-.18s-.16-.26-.16-.43v-14.73c0-.31.18-.54.55-.7.8-.34,1.69-.57,2.68-.69.99-.11,2.21-.17,3.66-.17.23,0,.39.03.49.08.1.05.15.18.15.38v1.39Z"/>
        <path class="cls-1" d="M323.88,506.19c0,.19-.04.32-.11.38-.07.07-.25.1-.53.1-1.86,0-3.26.1-4.22.3v13.65c0,.16-.05.3-.15.42-.1.12-.23.18-.38.18h-1.58c-.15,0-.28-.06-.38-.18s-.16-.26-.16-.43v-14.73c0-.31.18-.54.55-.7.8-.34,1.69-.57,2.68-.69.99-.11,2.21-.17,3.66-.17.23,0,.39.03.49.08.1.05.15.18.15.38v1.39Z"/>
        <path class="cls-1" d="M340.03,514.05c0,2.28-.58,4.08-1.75,5.4-1.17,1.32-2.84,1.98-5.02,1.98s-3.85-.66-5-1.98c-1.16-1.32-1.73-3.12-1.73-5.4v-2.31c0-2.28.58-4.08,1.73-5.41,1.15-1.33,2.82-1.99,5-1.99s3.85.66,5.02,1.99c1.16,1.33,1.75,3.13,1.75,5.41v2.31ZM337.37,514.05v-2.31c0-1.6-.34-2.84-1.01-3.73-.68-.89-1.71-1.33-3.09-1.33s-2.39.44-3.06,1.33c-.67.88-1,2.13-1,3.74v2.31c0,1.61.33,2.85.99,3.74.66.88,1.68,1.33,3.06,1.33s2.4-.44,3.08-1.33c.68-.88,1.02-2.13,1.02-3.74Z"/>
        <path class="cls-1" d="M363.88,514.66c0,1.04-.11,1.95-.34,2.75-.23.8-.53,1.45-.9,1.95-.38.5-.83.91-1.37,1.23-.54.32-1.09.54-1.66.67-.57.12-1.18.18-1.84.18-1.33,0-2.67-.24-4.01-.73-1.34.48-2.69.73-4.03.73-.66,0-1.28-.06-1.84-.18-.57-.12-1.12-.35-1.66-.67-.54-.32-1-.73-1.38-1.23-.38-.5-.68-1.15-.91-1.95-.23-.8-.34-1.72-.34-2.75v-9.49c0-.17.06-.31.18-.43.12-.12.26-.18.43-.18h1.42c.17,0,.31.06.43.18.12.12.18.26.18.43v9.49c0,1.62.3,2.78.9,3.47.6.7,1.54,1.04,2.83,1.04.49,0,1.3-.13,2.43-.4v-13.61c0-.17.06-.31.18-.43.12-.12.26-.18.43-.18h1.48c.17,0,.31.06.43.18.12.12.18.26.18.43v13.61c1.12.27,1.93.4,2.43.4,1.27,0,2.21-.35,2.82-1.04.61-.7.91-1.85.91-3.47v-9.49c0-.17.06-.31.18-.43.12-.12.26-.18.43-.18h1.42c.17,0,.31.06.43.18.12.12.18.26.18.43v9.49Z"/>
      </g>
      <path class="cls-2" d="M0,0v371.5h371.5V0H0ZM286.97,125.05l-55.33,55.33,55.04,55.04.29,51.55h-20.19l-91.05-91.05h-26.28l-14.38,14.23v46.47l-30.21,30.35h-20.33v-40.52l55.33-55.33-54.89-54.89-.44-51.7h20.33l91.05,91.05h26.14l14.23-14.23v-46.47l30.5-30.35h20.19v40.52Z"/>
    </g>
  </g>
</svg>